<?xml version="1.0" standalone="no"?>
<!DOCTYPE svg PUBLIC "-//W3C//DTD SVG 1.1//EN" "http://www.w3.org/Graphics/SVG/1.1/DTD/svg11.dtd">

<svg version="1.1" width="10cm" height="5cm" viewBox="0.0 0.0 540.0 270.0" fill="none" xmlns="http://www.w3.org/2000/svg">
<path d="M272.9895 136.23622L272.9895 136.23622C272.9895 80.75552 317.96548 35.779526 373.4462 35.779526L373.4462 35.779526C400.08896 35.779526 425.64053 46.363327 444.4798 65.202614C463.3191 84.04189 473.9029 109.59345 473.9029 136.23622L473.9029 136.23622C473.9029 191.71692 428.92688 236.69292 373.4462 236.69292L373.4462 236.69292C317.96548 236.69292 272.9895 191.71692 272.9895 136.23622Z" fill-rule="nonzero" fill="#cce2ef" stroke="#000000" stroke-width="2.0" stroke-linejoin="round" stroke-linecap="butt"></path>
<path d="M65.45407 136.23622L65.45407 136.23622C65.45407 66.88317 121.67582 10.661417 191.02887 10.661417L191.02887 10.661417C224.33337 10.661417 256.27383 23.891582 279.82367 47.441425C303.3735 70.99127 316.60367 102.93171 316.60367 136.23622L316.60367 136.23622C316.60367 205.58926 260.38193 261.81104 191.02887 261.81104L191.02887 261.81104C121.67582 261.81104 65.45407 205.58926 65.45407 136.23622Z
M272.9895 136.23622L272.9895 136.23622C272.9895 80.75552 317.96548 35.779526 373.4462 35.779526L373.4462 35.779526C400.08896 35.779526 425.64053 46.363327 444.4798 65.202614C463.3191 84.04189 473.9029 109.59345 473.9029 136.23622L473.9029 136.23622C473.9029 191.71692 428.92688 236.69292 373.4462 236.69292L373.4462 236.69292C317.96548 236.69292 272.9895 191.71692 272.9895 136.23622Z" fill-rule="evenodd" fill="#ffffff" stroke="#000000" stroke-width="2.0" stroke-linejoin="round" stroke-linecap="butt"></path>
<path d="M0 135L0 135L8.0 135L8.0 137L0 137ZM14.0 135L14.0 135L22.0 135L22.0 137L14.0 137ZM28.0 135L28.0 135L36.0 135L36.0 137L28.0 137ZM42.0 135L42.0 135L50.0 135L50.0 137L42.0 137ZM56.0 135L56.0 135L64.0 135L64.0 137L56.0 137ZM70.0 135L70.0 135L78.0 135L78.0 137L70.0 137ZM84.0 135L84.0 135L92.0 135L92.0 137L84.0 137ZM98.0 135L98.0 135L106.0 135L106.0 137L98.0 137ZM112.0 135L112.0 135L120.0 135L120.0 137L112.0 137ZM126.0 135L126.0 135L134.0 135L134.0 137L126.0 137ZM140.0 135L140.0 135L148.0 135L148.0 137L140.0 137ZM154.0 135L154.0 135L162.0 135L162.0 137L154.0 137ZM168.0 135L168.0 135L176.0 135L176.0 137L168.0 137ZM182.0 135L182.0 135L190.0 135L190.0 137L182.0 137ZM196.0 135L196.0 135L204.0 135L204.0 137L196.0 137ZM210.0 135L210.0 135L218.0 135L218.0 137L210.0 137ZM224.0 135L224.0 135L232.0 135L232.0 137L224.0 137ZM238.0 135L238.0 135L246.0 135L246.0 137L238.0 137ZM252.0 135L252.0 135L260.0 135L260.0 137L252.0 137ZM266.0 135L266.0 135L274.0 135L274.0 137L266.0 137ZM280.0 135L280.0 135L288.0 135L288.0 137L280.0 137ZM294.0 135L294.0 135L302.0 135L302.0 137L294.0 137ZM308.0 135L308.0 135L316.0 135L316.0 137L308.0 137ZM322.0 135L322.0 135L330.0 135L330.0 137L322.0 137ZM336.0 135L336.0 135L344.0 135L344.0 137L336.0 137ZM350.0 135L350.0 135L358.0 135L358.0 137L350.0 137ZM364.0 135L364.0 135L372.0 135L372.0 137L364.0 137ZM378.0 135L378.0 135L386.0 135L386.0 137L378.0 137ZM392.0 135L392.0 135L400.0 135L400.0 137L392.0 137ZM406.0 135L406.0 135L414.0 135L414.0 137L406.0 137ZM420.0 135L420.0 135L428.0 135L428.0 137L420.0 137ZM434.0 135L434.0 135L442.0 135L442.0 137L434.0 137ZM448.0 135L448.0 135L456.0 135L456.0 137L448.0 137ZM462.0 135L462.0 135L470.0 135L470.0 137L462.0 137ZM476.0 135L476.0 135L484.0 135L484.0 137L476.0 137ZM490.0 135L490.0 135L498.0 135L498.0 137L490.0 137ZM504.0 135L504.0 135L512.0 135L512.0 137L504.0 137ZM518.0 135L518.0 135L526.0 135L526.0 137L518.0 137Z" fill-rule="nonzero" fill="#999999"></path>
<path d="M298.8609 0L298.8609 272.47244" fill-rule="nonzero" stroke="#999999" stroke-width="2.0" stroke-linejoin="round" stroke-linecap="butt"></path>
<path d="M191.02887 125.16535L191.02887 147.30708" fill-rule="nonzero" stroke="#666666" stroke-width="2.0" stroke-linejoin="round" stroke-linecap="butt"></path>
<path d="M373.4462 125.16535L373.4462 147.30708" fill-rule="nonzero" stroke="#666666" stroke-width="2.0" stroke-linejoin="round" stroke-linecap="butt"></path>
<path d="M384.7848 136.23622L362.1076 136.23622" fill-rule="nonzero" stroke="#666666" stroke-width="2.0" stroke-linejoin="round" stroke-linecap="butt"></path>
<path d="M202.36745 136.23622L179.69029 136.23622" fill-rule="nonzero" stroke="#666666" stroke-width="2.0" stroke-linejoin="round" stroke-linecap="butt"></path>
<text x="183" y="173" font-size="24" fill="#000">O<tspan dx="0" dy="6" font-size="18">1</tspan></text>
<text x="366" y="173" font-size="24" fill="#000">O<tspan dx="0" dy="6" font-size="18">2</tspan></text>
</svg>
